<svg width="162" height="162" viewBox="0 0 162 162" fill="none" xmlns="http://www.w3.org/2000/svg">
<path d="M101.115 61.9719C98.3245 61.9719 95.7382 62.8072 93.5478 64.2013L79.7271 52.1079C80.1578 50.7527 80.4545 49.3352 80.4545 47.8374C80.4545 40.0297 74.1296 33.7029 66.3223 33.7029C58.5149 33.7029 52.1859 40.0297 52.1859 47.8374C52.1859 51.9374 53.9606 55.5972 56.7465 58.1798L46.2789 75.628C45.0408 75.273 43.7549 75.0221 42.4023 75.0221C34.5946 75.0221 28.2659 81.3514 28.2659 89.1566C28.2659 96.9642 34.5953 103.293 42.4023 103.293C50.2093 103.293 56.5346 96.9636 56.5346 89.1566C56.5346 85.0566 54.7639 81.3967 51.9739 78.8142L62.4415 61.3679C63.6838 61.7229 64.9655 61.9738 66.3223 61.9738C70.2378 61.9738 73.7749 60.3807 76.3375 57.8115L89.0108 68.905C87.7509 71.022 86.9782 73.4657 86.9782 76.1086C86.9782 83.9162 93.3076 90.2431 101.115 90.2431C108.922 90.2431 115.247 83.9162 115.247 76.1086C115.247 68.3006 108.922 61.9719 101.115 61.9719ZM42.4013 96.7671C38.2042 96.7671 34.7908 93.3515 34.7908 89.1543C34.7908 84.9597 38.2023 81.5438 42.4013 81.5438C46.5959 81.5438 50.0118 84.9594 50.0118 89.1543C50.0118 93.3512 46.5962 96.7671 42.4013 96.7671ZM66.3216 55.4476C62.1245 55.4476 58.7111 52.032 58.7111 47.8371C58.7111 43.6399 62.1226 40.2243 66.3216 40.2243C70.5165 40.2243 73.9322 43.6399 73.9322 47.8371C73.9303 52.032 70.5146 55.4476 66.3216 55.4476ZM101.115 83.7191C96.9178 83.7191 93.5003 80.3035 93.5003 76.1064C93.5003 71.9118 96.9159 68.4959 101.115 68.4959C105.31 68.4959 108.725 71.9115 108.725 76.1064C108.725 80.3035 105.31 83.7191 101.115 83.7191Z" fill="white"/>
<path d="M161.047 155.35L120.195 114.497C130.65 102.471 136.997 86.7732 136.997 69.5825C136.997 31.7504 106.334 1.08118 68.4972 1.08118C30.6629 1.08086 0 31.7501 0 69.5822C0 107.414 30.6629 138.084 68.4969 138.084C86.794 138.084 103.4 130.897 115.686 119.211L156.436 159.963C157.709 161.238 159.772 161.238 161.049 159.963C162.317 158.691 162.317 156.623 161.047 155.35ZM68.495 131.562C34.3231 131.562 6.52177 103.759 6.52177 69.5847C6.52177 35.4106 34.3234 7.60706 68.495 7.60706C102.667 7.60706 130.468 35.4106 130.468 69.5847C130.468 103.759 102.667 131.562 68.495 131.562Z" fill="#EC2B2B"/>
</svg>
