<svg width="162" height="162" viewBox="0 0 162 162" fill="none" xmlns="http://www.w3.org/2000/svg">
<path d="M49.4757 148.957C46.9448 149.003 44.4486 148.364 42.2513 147.107C27.5356 138.482 33.0151 102.704 54.7297 65.6559C76.4727 28.5689 105.031 6.26982 119.749 14.8865C134.467 23.5031 128.967 59.327 107.233 96.4053C88.6621 128.087 65.1108 148.957 49.4757 148.957ZM112.509 17.4259C99.8577 17.4259 77.5104 35.4648 58.5148 67.8648C36.6777 105.127 33.6237 136.967 44.4734 143.324C55.323 149.681 81.6086 131.461 103.446 94.1986C125.307 56.8948 128.376 25.0202 117.529 18.6716C115.998 17.8136 114.264 17.3833 112.509 17.4259Z" fill="#EC2B2B"/>
<path d="M112.463 148.979C105.907 148.979 97.8503 145.314 89.0103 138.193C77.0968 128.593 64.9402 113.755 54.7758 96.4119C44.6114 79.0691 37.5797 61.1659 35.0227 46.0605C32.3454 30.2612 34.9155 19.1904 42.2471 14.8865C56.9737 6.26982 85.5252 28.5689 107.27 65.6538C128.974 102.704 134.454 138.482 119.749 147.114C117.532 148.38 115.015 149.024 112.463 148.979ZM49.4889 17.4259C47.7342 17.3835 46.0004 17.8138 44.4691 18.6716C38.8932 21.94 37.0259 31.66 39.3398 45.3359C41.8092 59.9203 48.6329 77.2718 58.5543 94.1986C68.456 111.097 80.247 125.504 91.7578 134.782C102.555 143.482 111.946 146.603 117.527 143.32C128.374 136.969 125.32 105.129 103.483 67.8649C84.4897 35.4649 62.1402 17.4259 49.4889 17.4259Z" fill="#EC2B2B"/>
<path d="M81.2189 111.416H80.9059C37.9715 111.351 4.3521 97.9374 4.37837 80.8814C4.39151 72.3742 12.6513 64.572 27.6385 58.9129C41.8682 53.5385 60.7084 50.594 80.6957 50.594H81C101.141 50.6246 120.103 53.6413 134.416 59.088C149.395 64.7909 157.635 72.6172 157.622 81.1266C157.608 89.636 149.344 97.4186 134.351 103.084C120.101 108.461 101.246 111.416 81.2189 111.416ZM80.9124 107.038H81.2189C100.725 107.038 119.028 104.192 132.796 98.9882C145.785 94.091 153.243 87.5672 153.243 81.1091C153.243 74.651 145.824 68.1053 132.858 63.1687C119.037 57.9059 100.62 54.9921 81 54.9614C61.4265 55.014 43.0132 57.7877 29.1863 63.0111C16.2131 67.9083 8.75675 74.4321 8.75675 80.888C8.73705 93.4627 37.7307 106.972 80.9212 107.038H80.9124Z" fill="#EC2B2B"/>
<path d="M81.0001 94.1353C78.4022 94.1353 75.8626 93.3649 73.7026 91.9216C71.5425 90.4783 69.859 88.4269 68.8648 86.0267C67.8706 83.6266 67.6105 80.9856 68.1173 78.4376C68.6241 75.8896 69.8751 73.5492 71.7121 71.7122C73.5491 69.8752 75.8896 68.6242 78.4375 68.1174C80.9855 67.6106 83.6265 67.8707 86.0267 68.8648C88.4268 69.859 90.4782 71.5426 91.9215 73.7026C93.3649 75.8627 94.1352 78.4022 94.1352 81.0001C94.1317 84.4827 92.7467 87.8217 90.2842 90.2842C87.8216 92.7468 84.4827 94.1318 81.0001 94.1353ZM81.0001 72.2434C79.2682 72.2434 77.5751 72.757 76.1351 73.7192C74.695 74.6814 73.5727 76.049 72.9099 77.6491C72.2471 79.2492 72.0737 81.0098 72.4116 82.7085C72.7495 84.4071 73.5835 85.9674 74.8081 87.1921C76.0328 88.4167 77.5931 89.2508 79.2917 89.5886C80.9904 89.9265 82.7511 89.7531 84.3511 89.0903C85.9512 88.4275 87.3188 87.3052 88.2811 85.8651C89.2433 84.4251 89.7568 82.7321 89.7568 81.0001C89.7568 78.6777 88.8342 76.4504 87.192 74.8082C85.5498 73.166 83.3225 72.2434 81.0001 72.2434Z" fill="white"/>
</svg>
