<svg width="136" height="136" viewBox="0 0 136 136" fill="none" xmlns="http://www.w3.org/2000/svg">
<g clip-path="url(#clip0_0_199)">
<path d="M51.4535 43.7463C50.5469 42.8398 49.1869 42.8398 48.28 43.7463L25.6135 66.4129C24.9335 67.0929 24.7069 67.9995 25.16 68.9063C25.3866 69.3598 25.6135 69.5863 25.84 69.8129L48.28 92.2529C48.7335 92.7063 49.1866 92.9329 49.8666 92.9329C50.5466 92.9329 51 92.7063 51.4532 92.2529C52.3598 91.3463 52.3598 89.9863 51.4532 89.0795L30.3735 67.9998L51.4535 46.9198C52.36 46.0132 52.36 44.6532 51.4535 43.7463Z" fill="white"/>
<path d="M110.16 66.1863L87.72 43.7463C86.8135 42.8398 85.4535 42.8398 84.5466 43.7463C83.6398 44.6529 83.64 46.0129 84.5466 46.9198L105.627 67.9998L84.5466 89.0797C83.64 89.9863 83.64 91.3463 84.5466 92.2532C85 92.7066 85.4532 92.9332 86.1332 92.9332C86.8132 92.9332 87.4932 92.7066 87.7198 92.2532L110.386 69.5866C111.066 68.9066 111.293 68 110.84 67.0932C110.613 66.6398 110.387 66.4132 110.16 66.1863Z" fill="white"/>
<path d="M75.2535 43.2935C74.1201 43.0669 72.9869 43.7469 72.5335 44.88L58.9335 90.2135C58.707 91.3469 59.387 92.48 60.5201 92.9335C60.7467 92.9335 60.9735 92.9335 61.2001 92.9335C62.1067 92.9335 63.0135 92.2535 63.2401 91.3469L76.8401 46.0135C77.0667 44.88 76.3867 43.7466 75.2535 43.2935Z" fill="white"/>
<path d="M106.533 0H29.4666C13.1466 0 0 13.1466 0 29.4666V106.533C0 122.853 13.1466 136 29.4666 136H106.533C122.853 136 136 122.853 136 106.533V29.4666C136 13.1466 122.853 0 106.533 0ZM131.467 106.533C131.467 120.36 120.36 131.467 106.533 131.467H29.4666C15.64 131.467 4.53316 120.36 4.53316 106.533V29.4666C4.53316 15.64 15.6397 4.53316 29.4666 4.53316H106.533C120.36 4.53316 131.467 15.6397 131.467 29.4666V106.533Z" fill="#EC2B2B"/>
</g>
<defs>
<clipPath id="clip0_0_199">
<rect width="136" height="136" fill="white"/>
</clipPath>
</defs>
</svg>
