<svg width="162" height="162" viewBox="0 0 162 162" fill="none" xmlns="http://www.w3.org/2000/svg">
<path d="M141.389 70.4919C139.234 58.0488 133.284 46.5765 124.354 37.6471C115.424 28.7177 103.951 22.7681 91.5082 20.6134L92.2481 16.2985C105.583 18.6069 117.877 24.9822 127.447 34.5509C137.017 44.1195 143.394 56.4133 145.704 69.7476L141.389 70.4919Z" fill="#EC2B2B"/>
<path d="M69.7497 145.701C56.4155 143.393 44.1214 137.017 34.552 127.448C24.9827 117.88 18.6062 105.586 16.2963 92.2523L20.6112 91.5079C22.7663 103.951 28.7165 115.423 37.6463 124.353C46.5761 133.282 58.0486 139.232 70.4918 141.386L69.7497 145.701Z" fill="#EC2B2B"/>
<path d="M20.6112 70.4919L16.2963 69.7476C18.6062 56.4136 24.9827 44.12 34.552 34.5514C44.1214 24.9828 56.4155 18.6073 69.7497 16.2985L70.4918 20.6134C58.0486 22.7681 46.5761 28.7177 37.6463 37.6471C28.7165 46.5765 22.7663 58.0488 20.6112 70.4919Z" fill="#EC2B2B"/>
<path d="M92.2503 145.701L91.5082 141.386C103.951 139.232 115.424 133.282 124.354 124.353C133.284 115.423 139.234 103.951 141.389 91.5079L145.704 92.2501C143.394 105.584 137.018 117.879 127.449 127.448C117.879 137.017 105.585 143.392 92.2503 145.701Z" fill="#EC2B2B"/>
<path d="M81 30.6486C78.4021 30.6486 75.8626 29.8782 73.7025 28.4349C71.5425 26.9916 69.8589 24.9402 68.8647 22.54C67.8706 20.1399 67.6104 17.4989 68.1173 14.9509C68.6241 12.4029 69.8751 10.0625 71.7121 8.22549C73.549 6.38851 75.8895 5.13751 78.4375 4.63069C80.9854 4.12387 83.6265 4.38399 86.0266 5.37815C88.4267 6.37232 90.4782 8.05589 91.9215 10.2159C93.3648 12.376 94.1352 14.9156 94.1352 17.5134C94.1317 20.996 92.7467 24.335 90.2841 26.7975C87.8216 29.2601 84.4826 30.6451 81 30.6486ZM81 8.75668C79.2681 8.75668 77.5751 9.27025 76.135 10.2325C74.695 11.1947 73.5726 12.5623 72.9098 14.1624C72.247 15.7625 72.0736 17.5231 72.4115 19.2218C72.7494 20.9204 73.5834 22.4807 74.8081 23.7054C76.0327 24.9301 77.593 25.7641 79.2917 26.1019C80.9903 26.4398 82.751 26.2664 84.3511 25.6036C85.9512 24.9408 87.3188 23.8185 88.281 22.3784C89.2432 20.9384 89.7568 19.2454 89.7568 17.5134C89.7568 15.191 88.8342 12.9637 87.192 11.3215C85.5498 9.67926 83.3225 8.75668 81 8.75668Z" fill="#EC2B2B"/>
<path d="M81 157.622C78.4021 157.622 75.8626 156.851 73.7025 155.408C71.5425 153.965 69.8589 151.913 68.8647 149.513C67.8706 147.113 67.6104 144.472 68.1173 141.924C68.6241 139.376 69.8751 137.036 71.7121 135.199C73.549 133.362 75.8895 132.111 78.4375 131.604C80.9854 131.097 83.6265 131.357 86.0266 132.351C88.4267 133.345 90.4782 135.029 91.9215 137.189C93.3648 139.349 94.1352 141.889 94.1352 144.486C94.1317 147.969 92.7467 151.308 90.2841 153.771C87.8216 156.233 84.4826 157.618 81 157.622ZM81 135.73C79.2681 135.73 77.5751 136.243 76.135 137.205C74.695 138.168 73.5726 139.535 72.9098 141.135C72.247 142.735 72.0736 144.496 72.4115 146.195C72.7494 147.893 73.5834 149.454 74.8081 150.678C76.0327 151.903 77.593 152.737 79.2917 153.075C80.9903 153.413 82.751 153.239 84.3511 152.577C85.9512 151.914 87.3188 150.792 88.281 149.351C89.2432 147.911 89.7568 146.218 89.7568 144.486C89.7568 142.164 88.8342 139.937 87.192 138.295C85.5498 136.652 83.3225 135.73 81 135.73Z" fill="#EC2B2B"/>
<path d="M144.487 94.1353C141.889 94.1353 139.349 93.3649 137.189 91.9216C135.029 90.4783 133.345 88.4269 132.351 86.0267C131.357 83.6266 131.097 80.9856 131.604 78.4376C132.111 75.8896 133.362 73.5492 135.199 71.7122C137.036 69.8752 139.376 68.6242 141.924 68.1174C144.472 67.6106 147.113 67.8707 149.513 68.8648C151.913 69.859 153.965 71.5426 155.408 73.7026C156.851 75.8627 157.622 78.4022 157.622 81.0001C157.618 84.4827 156.233 87.8217 153.771 90.2842C151.308 92.7468 147.969 94.1318 144.487 94.1353ZM144.487 72.2434C142.755 72.2434 141.062 72.757 139.622 73.7192C138.182 74.6814 137.059 76.049 136.396 77.6491C135.734 79.2492 135.56 81.0098 135.898 82.7085C136.236 84.4071 137.07 85.9674 138.295 87.1921C139.519 88.4167 141.08 89.2508 142.778 89.5886C144.477 89.9265 146.238 89.7531 147.838 89.0903C149.438 88.4275 150.805 87.3052 151.768 85.8651C152.73 84.4251 153.243 82.7321 153.243 81.0001C153.243 78.6777 152.321 76.4504 150.679 74.8082C149.036 73.166 146.809 72.2434 144.487 72.2434Z" fill="#EC2B2B"/>
<path d="M17.5136 94.1353C14.9157 94.1353 12.3761 93.3649 10.2161 91.9216C8.05601 90.4783 6.37244 88.4269 5.37828 86.0267C4.38411 83.6266 4.12399 80.9856 4.63081 78.4376C5.13763 75.8896 6.38863 73.5492 8.22562 71.7122C10.0626 69.8752 12.4031 68.6242 14.951 68.1174C17.499 67.6106 20.14 67.8707 22.5402 68.8648C24.9403 69.859 26.9917 71.5426 28.435 73.7026C29.8783 75.8627 30.6487 78.4022 30.6487 81.0001C30.6452 84.4827 29.2602 87.8217 26.7977 90.2842C24.3351 92.7468 20.9961 94.1318 17.5136 94.1353ZM17.5136 72.2434C15.7816 72.2434 14.0886 72.757 12.6486 73.7192C11.2085 74.6814 10.0862 76.049 9.42337 77.6491C8.76059 79.2492 8.58718 81.0098 8.92506 82.7085C9.26294 84.4071 10.0969 85.9674 11.3216 87.1921C12.5463 88.4167 14.1066 89.2508 15.8052 89.5886C17.5038 89.9265 19.2645 89.7531 20.8646 89.0903C22.4647 88.4275 23.8323 87.3052 24.7945 85.8651C25.7567 84.4251 26.2703 82.7321 26.2703 81.0001C26.2703 78.6777 25.3477 76.4504 23.7055 74.8082C22.0633 73.166 19.836 72.2434 17.5136 72.2434Z" fill="#EC2B2B"/>
<path d="M80.9999 120.405C73.2063 120.405 65.5876 118.094 59.1074 113.764C52.6272 109.434 47.5766 103.28 44.5941 96.0798C41.6116 88.8794 40.8312 80.9563 42.3517 73.3124C43.8721 65.6685 47.6251 58.6471 53.1361 53.1362C58.647 47.6253 65.6684 43.8723 73.3123 42.3518C80.9562 40.8313 88.8793 41.6117 96.0797 44.5942C103.28 47.5767 109.434 52.6274 113.764 59.1076C118.094 65.5877 120.405 73.2064 120.405 81C120.393 91.4473 116.238 101.463 108.85 108.85C101.463 116.238 91.4471 120.393 80.9999 120.405ZM80.9999 45.973C74.0722 45.973 67.3001 48.0273 61.5399 51.8761C55.7798 55.7249 51.2903 61.1954 48.6392 67.5958C45.988 73.9961 45.2944 81.0389 46.6459 87.8335C47.9974 94.628 51.3334 100.869 56.2321 105.768C61.1307 110.666 67.3719 114.002 74.1665 115.354C80.9611 116.706 88.0038 116.012 94.4042 113.361C100.805 110.71 106.275 106.22 110.124 100.46C113.973 94.6998 116.027 87.9277 116.027 81C116.016 71.7137 112.322 62.8108 105.756 56.2443C99.1891 49.6779 90.2863 45.984 80.9999 45.973Z" fill="white"/>
<path d="M81 107.27C75.8042 107.27 70.7252 105.729 66.405 102.842C62.0849 99.9558 58.7178 95.853 56.7295 91.0527C54.7411 86.2525 54.2209 80.9704 55.2345 75.8745C56.2482 70.7785 58.7502 66.0976 62.4241 62.4236C66.0981 58.7497 70.779 56.2477 75.8749 55.234C80.9709 54.2204 86.2529 54.7406 91.0532 56.729C95.8535 58.7173 99.9563 62.0844 102.843 66.4045C105.73 70.7247 107.27 75.8038 107.27 80.9995C107.263 87.9645 104.493 94.6421 99.5676 99.5671C94.6426 104.492 87.965 107.262 81 107.27ZM81 59.1076C76.6702 59.1076 72.4376 60.3916 68.8375 62.7971C65.2374 65.2026 62.4315 68.6216 60.7745 72.6219C59.1176 76.6221 58.6841 81.0238 59.5288 85.2704C60.3735 89.517 62.4585 93.4178 65.5201 96.4794C68.5817 99.5411 72.4825 101.626 76.7291 102.471C80.9757 103.315 85.3775 102.882 89.3777 101.225C93.3779 99.5681 96.7969 96.7621 99.2025 93.162C101.608 89.5619 102.892 85.3293 102.892 80.9995C102.886 75.1954 100.577 69.6308 96.4729 65.5267C92.3687 61.4225 86.8041 59.114 81 59.1076Z" fill="white"/>
<path d="M81 89.7568C79.2681 89.7568 77.5751 89.2432 76.135 88.281C74.695 87.3188 73.5726 85.9512 72.9099 84.3511C72.2471 82.751 72.0737 80.9903 72.4115 79.2917C72.7494 77.593 73.5834 76.0327 74.8081 74.8081C76.0327 73.5834 77.593 72.7494 79.2917 72.4115C80.9903 72.0737 82.751 72.2471 84.3511 72.9099C85.9512 73.5726 87.3188 74.695 88.281 76.135C89.2432 77.5751 89.7568 79.2681 89.7568 81C89.7568 83.3225 88.8342 85.5498 87.192 87.192C85.5498 88.8342 83.3225 89.7568 81 89.7568ZM81 76.6217C80.1341 76.6217 79.2876 76.8784 78.5675 77.3595C77.8475 77.8407 77.2863 78.5245 76.9549 79.3245C76.6236 80.1246 76.5369 81.0049 76.7058 81.8542C76.8747 82.7035 77.2917 83.4837 77.9041 84.096C78.5164 84.7083 79.2965 85.1253 80.1459 85.2943C80.9952 85.4632 81.8755 85.3765 82.6756 85.0451C83.4756 84.7137 84.1594 84.1526 84.6405 83.4325C85.1216 82.7125 85.3784 81.866 85.3784 81C85.3784 79.8388 84.9171 78.7252 84.096 77.9041C83.2749 77.083 82.1613 76.6217 81 76.6217Z" fill="white"/>
</svg>
