<svg width="168" height="168" viewBox="0 0 168 168" fill="none" xmlns="http://www.w3.org/2000/svg">
<path d="M129.405 76.1221C128.803 76.1221 128.226 75.8829 127.8 75.4572C127.374 75.0314 127.135 74.454 127.135 73.8518V67.1091C127.135 66.507 127.374 65.9296 127.8 65.5038C128.226 65.0781 128.803 64.8389 129.405 64.8389C130.008 64.8389 130.585 65.0781 131.011 65.5038C131.437 65.9296 131.676 66.507 131.676 67.1091V73.8518C131.676 74.454 131.437 75.0314 131.011 75.4572C130.585 75.8829 130.008 76.1221 129.405 76.1221Z" fill="#EC2B2B"/>
<path d="M122.595 163.459H45.4054C42.997 163.459 40.6872 162.503 38.9841 160.8C37.2811 159.097 36.3243 156.787 36.3243 154.378V13.6215C36.3243 11.2131 37.2811 8.90329 38.9841 7.20025C40.6872 5.49722 42.997 4.54047 45.4054 4.54047H122.595C125.003 4.54047 127.313 5.49722 129.016 7.20025C130.719 8.90329 131.676 11.2131 131.676 13.6215V51.2172C131.676 51.8193 131.437 52.3968 131.011 52.8225C130.585 53.2483 130.008 53.4875 129.405 53.4875C128.803 53.4875 128.226 53.2483 127.8 52.8225C127.374 52.3968 127.135 51.8193 127.135 51.2172V13.6215C127.135 12.4173 126.657 11.2624 125.805 10.4109C124.954 9.55938 123.799 9.08101 122.595 9.08101H45.4054C44.2012 9.08101 43.0463 9.55938 42.1948 10.4109C41.3433 11.2624 40.8649 12.4173 40.8649 13.6215V154.378C40.8649 155.583 41.3433 156.737 42.1948 157.589C43.0463 158.44 44.2012 158.919 45.4054 158.919H122.595C123.799 158.919 124.954 158.44 125.805 157.589C126.657 156.737 127.135 155.583 127.135 154.378V112.242C127.135 111.64 127.374 111.063 127.8 110.637C128.226 110.211 128.803 109.972 129.405 109.972C130.008 109.972 130.585 110.211 131.011 110.637C131.437 111.063 131.676 111.64 131.676 112.242V154.378C131.676 156.787 130.719 159.097 129.016 160.8C127.313 162.503 125.003 163.459 122.595 163.459Z" fill="#EC2B2B"/>
<path d="M129.405 98.6205C128.803 98.6205 128.226 98.3814 127.8 97.9556C127.374 97.5298 127.135 96.9524 127.135 96.3503V89.7438C127.135 89.1417 127.374 88.5642 127.8 88.1385C128.226 87.7127 128.803 87.4735 129.405 87.4735C130.008 87.4735 130.585 87.7127 131.011 88.1385C131.437 88.5642 131.676 89.1417 131.676 89.7438V96.3503C131.676 96.9524 131.437 97.5298 131.011 97.9556C130.585 98.3814 130.008 98.6205 129.405 98.6205Z" fill="#EC2B2B"/>
<path d="M129.405 31.0346H38.5946C37.9925 31.0346 37.415 30.7954 36.9893 30.3696C36.5635 29.9438 36.3243 29.3664 36.3243 28.7643C36.3243 28.1622 36.5635 27.5847 36.9893 27.159C37.415 26.7332 37.9925 26.494 38.5946 26.494H129.405C130.008 26.494 130.585 26.7332 131.011 27.159C131.437 27.5847 131.676 28.1622 131.676 28.7643C131.676 29.3664 131.437 29.9438 131.011 30.3696C130.585 30.7954 130.008 31.0346 129.405 31.0346Z" fill="#EC2B2B"/>
<path d="M129.405 136.57H38.5946C37.9925 136.57 37.415 136.331 36.9893 135.905C36.5635 135.48 36.3243 134.902 36.3243 134.3C36.3243 133.698 36.5635 133.12 36.9893 132.695C37.415 132.269 37.9925 132.03 38.5946 132.03H129.405C130.008 132.03 130.585 132.269 131.011 132.695C131.437 133.12 131.676 133.698 131.676 134.3C131.676 134.902 131.437 135.48 131.011 135.905C130.585 136.331 130.008 136.57 129.405 136.57Z" fill="#EC2B2B"/>
<path d="M94.0029 20.4323H73.9973C73.3952 20.4323 72.8177 20.1931 72.392 19.7673C71.9662 19.3416 71.727 18.7641 71.727 18.162C71.727 17.5599 71.9662 16.9824 72.392 16.5567C72.8177 16.1309 73.3952 15.8917 73.9973 15.8917H94.0029C94.605 15.8917 95.1825 16.1309 95.6082 16.5567C96.034 16.9824 96.2732 17.5599 96.2732 18.162C96.2732 18.7641 96.034 19.3416 95.6082 19.7673C95.1825 20.1931 94.605 20.4323 94.0029 20.4323Z" fill="#EC2B2B"/>
<path d="M88.116 154.732H79.884C78.0307 154.732 76.2533 153.996 74.9428 152.686C73.6323 151.375 72.8961 149.598 72.8961 147.745C72.8961 145.891 73.6323 144.114 74.9428 142.803C76.2533 141.493 78.0307 140.757 79.884 140.757H88.116C89.9693 140.757 91.7467 141.493 93.0572 142.803C94.3676 144.114 95.1039 145.891 95.1039 147.745C95.1039 149.598 94.3676 151.375 93.0572 152.686C91.7467 153.996 89.9693 154.732 88.116 154.732ZM79.884 145.297C79.2349 145.297 78.6124 145.555 78.1534 146.014C77.6945 146.473 77.4366 147.095 77.4366 147.745C77.4366 148.394 77.6945 149.016 78.1534 149.475C78.6124 149.934 79.2349 150.192 79.884 150.192H88.116C88.7651 150.192 89.3875 149.934 89.8465 149.475C90.3055 149.016 90.5633 148.394 90.5633 147.745C90.5633 147.095 90.3055 146.473 89.8465 146.014C89.3875 145.555 88.7651 145.297 88.116 145.297H79.884Z" fill="#EC2B2B"/>
<path d="M87.9867 116.17H80.0135C79.2625 116.174 78.5331 115.919 77.9474 115.449C77.3616 114.979 76.9553 114.322 76.7965 113.588L75.877 109.434C73.8393 108.841 71.8728 108.026 70.0129 107.005L66.4395 109.275C65.8048 109.674 65.0534 109.847 64.3079 109.765C63.5625 109.682 62.8669 109.349 62.3349 108.821L56.6933 103.179C56.1636 102.648 55.8301 101.952 55.7476 101.206C55.6651 100.461 55.8385 99.7088 56.2392 99.0745L58.5095 95.5034C57.4875 93.6435 56.6729 91.677 56.0803 89.6393L51.928 88.7311C51.1938 88.5724 50.5365 88.1661 50.0661 87.5805C49.5958 86.9948 49.341 86.2653 49.3444 85.5142V77.5455C49.3413 76.7921 49.5982 76.0606 50.0718 75.4746C50.5453 74.8885 51.2065 74.4837 51.9439 74.3286L56.0984 73.4091C56.6915 71.3715 57.5061 69.4051 58.5276 67.545L56.246 63.9716C55.8403 63.3396 55.664 62.5875 55.7467 61.8411C55.8293 61.0947 56.1659 60.3993 56.7001 59.8715L62.3485 54.2253C62.8806 53.6967 63.5761 53.364 64.3215 53.2816C65.067 53.1991 65.8184 53.3717 66.4531 53.7713L70.0243 56.0529C71.8838 55.0307 73.8504 54.2168 75.8884 53.626L76.7965 49.4714C76.9557 48.737 77.3624 48.0796 77.9485 47.6093C78.5345 47.139 79.2643 46.8843 80.0157 46.8878H87.9889C88.7398 46.8842 89.469 47.1387 90.0546 47.6086C90.6403 48.0785 91.0467 48.7353 91.2059 49.4691L92.1254 53.626C94.1634 54.2168 96.13 55.0307 97.9895 56.0529L101.563 53.7713C102.197 53.3715 102.948 53.1987 103.693 53.2812C104.439 53.3637 105.134 53.6965 105.665 54.2253L111.309 59.8692C111.844 60.3976 112.181 61.0937 112.264 61.841C112.346 62.5883 112.17 63.3413 111.763 63.9739L109.472 67.545C110.494 69.4051 111.309 71.3715 111.902 73.4091L116.054 74.3172C116.789 74.476 117.446 74.8826 117.917 75.4687C118.387 76.0549 118.642 76.7849 118.638 77.5364V85.521C118.641 86.2716 118.387 87.0008 117.917 87.5861C117.447 88.1714 116.79 88.5773 116.056 88.7357L111.902 89.6551C111.309 91.6929 110.494 93.6594 109.472 95.5193L111.754 99.0927C112.154 99.7268 112.327 100.478 112.245 101.223C112.162 101.969 111.829 102.664 111.3 103.195L105.656 108.839C105.125 109.368 104.429 109.701 103.683 109.784C102.938 109.866 102.186 109.693 101.552 109.293L97.9804 107.023C96.1205 108.045 94.154 108.859 92.1163 109.452L91.2082 113.604C91.0456 114.336 90.6372 114.99 90.0509 115.456C89.4647 115.923 88.7361 116.175 87.9867 116.17ZM81.0124 111.629H86.9877L87.9889 107.104C88.0808 106.688 88.2879 106.306 88.5866 106.003C88.8853 105.699 89.2636 105.485 89.678 105.386C92.2117 104.784 94.6328 103.781 96.8498 102.414C97.2131 102.19 97.6322 102.073 98.0591 102.076C98.4859 102.079 98.9032 102.203 99.2631 102.432L103.161 104.93L107.384 100.693L104.887 96.7951C104.657 96.4353 104.533 96.018 104.53 95.5911C104.527 95.1642 104.644 94.7451 104.868 94.3819C106.234 92.1657 107.237 89.7453 107.838 87.2123C107.937 86.7975 108.15 86.4188 108.454 86.1196C108.758 85.8205 109.14 85.613 109.556 85.521L114.083 84.5198V78.5513L109.556 77.5501C109.14 77.458 108.758 77.2505 108.454 76.9514C108.15 76.6523 107.937 76.2736 107.838 75.8587C107.243 73.3247 106.246 70.902 104.887 68.6824C104.662 68.3191 104.545 67.9 104.548 67.4731C104.552 67.0463 104.675 66.629 104.905 66.2691L107.402 62.371L103.161 58.1438L99.2631 60.6411C98.9032 60.8707 98.4859 60.9942 98.0591 60.9974C97.6322 61.0006 97.2131 60.8834 96.8498 60.6593C94.6328 59.2898 92.2108 58.2842 89.6757 57.6807C89.2609 57.582 88.8822 57.3684 88.583 57.0645C88.2839 56.7605 88.0764 56.3785 87.9844 55.9621L86.9832 51.4351H81.0124L80.0112 55.9621C79.9192 56.3785 79.7117 56.7605 79.4126 57.0645C79.1134 57.3684 78.7347 57.582 78.3199 57.6807C75.7869 58.2818 73.3665 59.2843 71.1503 60.6502C70.7871 60.8743 70.3679 60.9915 69.9411 60.9883C69.5142 60.9851 69.0969 60.8616 68.737 60.632L64.839 58.1347L60.6163 62.371L63.1136 66.2691C63.3432 66.629 63.4667 67.0463 63.4699 67.4731C63.4731 67.9 63.3559 68.3191 63.1317 68.6824C61.7662 70.8988 60.7638 73.3191 60.1622 75.8519C60.0635 76.2668 59.85 76.6455 59.546 76.9446C59.2421 77.2437 58.86 77.4512 58.4436 77.5432L53.9167 78.5444V84.5198L58.4436 85.521C58.86 85.613 59.2421 85.8205 59.546 86.1196C59.85 86.4188 60.0635 86.7975 60.1622 87.2123C60.7577 89.7442 61.754 92.1645 63.1136 94.3819C63.3377 94.7451 63.4549 95.1642 63.4517 95.5911C63.4485 96.018 63.325 96.4353 63.0954 96.7951L60.5981 100.693L64.8254 104.92L68.7234 102.423C69.0833 102.194 69.5006 102.07 69.9275 102.067C70.3543 102.064 70.7734 102.181 71.1367 102.405C73.358 103.776 75.7847 104.783 78.3244 105.386C78.7388 105.485 79.1171 105.699 79.4158 106.003C79.7145 106.306 79.9216 106.688 80.0135 107.104L81.0124 111.629Z" fill="white"/>
<path d="M84 100.412C80.266 100.412 76.6158 99.3045 73.5111 97.2299C70.4063 95.1554 67.9865 92.2068 66.5576 88.7571C65.1286 85.3073 64.7547 81.5112 65.4832 77.8489C66.2117 74.1867 68.0098 70.8226 70.6501 68.1823C73.2905 65.5419 76.6545 63.7438 80.3168 63.0154C83.979 62.2869 87.7751 62.6608 91.2249 64.0897C94.6747 65.5187 97.6233 67.9385 99.6978 71.0432C101.772 74.148 102.88 77.7981 102.88 81.5322C102.874 86.5377 100.883 91.3366 97.3439 94.8761C93.8045 98.4155 89.0055 100.406 84 100.412ZM84 67.1999C81.164 67.1999 78.3917 68.0409 76.0337 69.6165C73.6756 71.1921 71.8378 73.4315 70.7525 76.0517C69.6672 78.6718 69.3832 81.5549 69.9365 84.3364C70.4898 87.1179 71.8554 89.6728 73.8608 91.6782C75.8661 93.6835 78.4211 95.0492 81.2026 95.6025C83.9841 96.1558 86.8672 95.8718 89.4873 94.7865C92.1074 93.7012 94.3469 91.8633 95.9224 89.5053C97.498 87.1473 98.339 84.375 98.339 81.539C98.3342 77.7375 96.8219 74.0931 94.1339 71.4051C91.4459 68.717 87.8015 67.2048 84 67.1999Z" fill="white"/>
</svg>
