<svg width="162" height="162" viewBox="0 0 162 162" fill="none" xmlns="http://www.w3.org/2000/svg">
<path d="M133.163 19.6841C133.006 19.4862 132.811 19.322 132.589 19.201C132.367 19.0799 132.124 19.0047 131.872 18.9796C131.621 18.9546 131.367 18.9803 131.126 19.0551C130.884 19.13 130.661 19.2525 130.468 19.4154L116.702 30.8905C116.303 31.2233 116.013 31.6665 115.866 32.1643C115.72 32.6621 115.724 33.1922 115.878 33.6877C116.033 34.1831 116.331 34.6216 116.734 34.948C117.138 35.2743 117.629 35.4737 118.145 35.5212L128.344 36.4466C126.839 49.5275 122.942 61.1675 116.737 71.0596C111.042 80.1373 103.396 87.7953 94.009 93.8206C73.3227 107.098 51.1654 108.527 41.1768 108.384C40.436 105.227 38.5288 102.466 35.8379 100.656C33.1469 98.8459 29.8711 98.12 26.6674 98.624C23.4637 99.1279 20.5689 100.824 18.5637 103.373C16.5584 105.922 15.5909 109.135 15.8551 112.367C16.1194 115.6 17.5959 118.613 19.9886 120.802C22.3812 122.991 25.5131 124.195 28.7562 124.172C31.9992 124.149 35.1136 122.9 37.4748 120.677C39.836 118.454 41.2694 115.42 41.4875 112.184C41.7852 112.188 42.0887 112.19 42.4051 112.19C53.3179 112.19 75.3778 110.289 96.0584 97.0157C105.92 90.6875 113.959 82.6321 119.952 73.0773C126.475 62.678 130.562 50.4745 132.124 36.7899L142.362 37.7189C142.878 37.7652 143.397 37.6573 143.853 37.409C144.309 37.1606 144.68 36.7828 144.921 36.3234C145.162 35.8639 145.262 35.3433 145.208 34.8273C145.153 34.3113 144.947 33.823 144.615 33.424L133.163 19.6841ZM28.6702 120.375C26.8797 120.375 25.1293 119.844 23.6405 118.85C22.1517 117.855 20.9913 116.441 20.3061 114.787C19.6208 113.133 19.4415 111.312 19.7908 109.556C20.1401 107.8 21.0023 106.187 22.2683 104.921C23.5344 103.655 25.1475 102.793 26.9036 102.443C28.6597 102.094 30.48 102.273 32.1343 102.958C33.7885 103.644 35.2024 104.804 36.1972 106.293C37.1919 107.781 37.7229 109.532 37.7229 111.322C37.7202 113.722 36.7656 116.023 35.0685 117.721C33.3714 119.418 31.0703 120.373 28.6702 120.375ZM121.306 31.9954L131.441 23.5474L139.889 33.6819L121.306 31.9954Z" fill="white"/>
<path d="M127.521 104.019C124.98 104.019 122.496 104.773 120.382 106.185C118.269 107.597 116.622 109.603 115.65 111.951C114.677 114.299 114.422 116.883 114.918 119.376C115.414 121.868 116.638 124.158 118.435 125.955C120.232 127.752 122.522 128.976 125.014 129.472C127.507 129.968 130.091 129.713 132.439 128.741C134.787 127.768 136.793 126.121 138.205 124.008C139.617 121.895 140.371 119.411 140.371 116.869C140.367 113.462 139.012 110.196 136.603 107.787C134.194 105.378 130.928 104.023 127.521 104.019ZM127.521 125.922C125.731 125.922 123.981 125.391 122.492 124.397C121.003 123.402 119.843 121.988 119.157 120.334C118.472 118.68 118.293 116.859 118.642 115.103C118.991 113.347 119.854 111.734 121.12 110.468C122.386 109.202 123.999 108.339 125.755 107.99C127.511 107.641 129.331 107.82 130.986 108.505C132.64 109.19 134.054 110.351 135.048 111.839C136.043 113.328 136.574 115.079 136.574 116.869C136.571 119.269 135.617 121.57 133.92 123.267C132.223 124.965 129.922 125.919 127.521 125.922Z" fill="#EC2B2B"/>
<path d="M27.3277 48.709C27.6837 49.065 28.1666 49.265 28.6701 49.265C29.1735 49.265 29.6564 49.065 30.0124 48.709L36.414 42.3078L42.8152 48.709C43.1722 49.0602 43.6535 49.2562 44.1543 49.2541C44.6551 49.2521 45.1349 49.0522 45.489 48.6981C45.8431 48.344 46.043 47.8643 46.045 47.3634C46.0471 46.8626 45.8511 46.3813 45.4999 46.0243L39.0987 39.6231L45.4992 33.2225C45.8553 32.8665 46.0553 32.3836 46.0554 31.8801C46.0554 31.3766 45.8554 30.8937 45.4994 30.5376C45.1434 30.1816 44.6605 29.9815 44.157 29.9815C43.6535 29.9815 43.1706 30.1815 42.8145 30.5375L36.4133 36.9387L30.0124 30.5368C29.8361 30.3606 29.6267 30.2207 29.3964 30.1254C29.166 30.03 28.9191 29.9809 28.6697 29.981C28.4204 29.981 28.1735 30.0302 27.9432 30.1256C27.7128 30.2211 27.5035 30.361 27.3272 30.5373C27.151 30.7137 27.0111 30.923 26.9158 31.1534C26.8204 31.3838 26.7713 31.6307 26.7714 31.88C26.7714 32.1293 26.8206 32.3762 26.916 32.6066C27.0115 32.8369 27.1514 33.0462 27.3277 33.2225L33.7289 39.6231L27.3277 46.0243C26.9717 46.3803 26.7717 46.8632 26.7717 47.3666C26.7717 47.8701 26.9717 48.353 27.3277 48.709Z" fill="#EC2B2B"/>
<path d="M66.8221 71.4075C67.1782 71.7635 67.661 71.9635 68.1645 71.9635C68.668 71.9635 69.1508 71.7635 69.5068 71.4075L75.9081 65.0062L82.3096 71.4075C82.6666 71.7587 83.1479 71.9546 83.6487 71.9526C84.1496 71.9506 84.6293 71.7507 84.9834 71.3966C85.3375 71.0424 85.5374 70.5627 85.5394 70.0619C85.5415 69.5611 85.3455 69.0798 84.9943 68.7227L78.5931 62.3215L84.9943 55.92C85.3455 55.563 85.5415 55.0817 85.5394 54.5808C85.5374 54.08 85.3375 53.6003 84.9834 53.2462C84.6293 52.892 84.1496 52.6922 83.6487 52.6902C83.1479 52.6881 82.6666 52.8841 82.3096 53.2353L75.9081 59.6365L69.5068 53.2353C69.3311 53.0566 69.1217 52.9146 68.8908 52.8173C68.6598 52.7199 68.4119 52.6693 68.1613 52.6683C67.9107 52.6673 67.6624 52.7159 67.4306 52.8113C67.1989 52.9067 66.9884 53.0471 66.8112 53.2243C66.634 53.4015 66.4936 53.6121 66.3982 53.8438C66.3027 54.0755 66.2541 54.3238 66.2551 54.5744C66.2562 54.825 66.3068 55.073 66.4041 55.3039C66.5014 55.5349 66.6435 55.7442 66.8221 55.92L73.2234 62.3215L66.8221 68.7234C66.4663 69.0794 66.2665 69.5621 66.2665 70.0654C66.2665 70.5687 66.4663 71.0515 66.8221 71.4075Z" fill="#EC2B2B"/>
<path d="M86.3394 124.297C85.9833 123.941 85.5005 123.741 84.997 123.741C84.4935 123.741 84.0107 123.941 83.6547 124.297L77.2534 130.698L70.8519 124.297C70.4943 123.948 70.014 123.755 69.515 123.759C69.016 123.762 68.5383 123.962 68.1854 124.314C67.8326 124.667 67.6328 125.145 67.6294 125.644C67.626 126.143 67.8192 126.623 68.1672 126.981L74.5687 133.382L68.1672 139.784C67.987 139.959 67.8434 140.169 67.7448 140.4C67.6463 140.632 67.5946 140.88 67.5929 141.132C67.5912 141.383 67.6395 141.632 67.735 141.865C67.8305 142.098 67.9712 142.309 68.149 142.487C68.3268 142.665 68.5382 142.805 68.7709 142.901C69.0036 142.996 69.2529 143.044 69.5043 143.043C69.7558 143.041 70.0044 142.989 70.2358 142.891C70.4671 142.792 70.6765 142.649 70.8519 142.468L77.2534 136.067L83.6547 142.468C84.0123 142.816 84.4925 143.01 84.9916 143.006C85.4906 143.003 85.9682 142.803 86.3211 142.45C86.674 142.098 86.8738 141.62 86.8772 141.121C86.8806 140.622 86.6874 140.142 86.3394 139.784L79.9378 133.382L86.3394 126.981C86.6953 126.625 86.8952 126.142 86.8952 125.639C86.8952 125.135 86.6953 124.653 86.3394 124.297Z" fill="#EC2B2B"/>
</svg>
