<svg width="327" height="179" viewBox="0 0 327 179" fill="none" xmlns="http://www.w3.org/2000/svg">
<path fill-rule="evenodd" clip-rule="evenodd" d="M192.234 65.2749L193.516 67.5463C195.883 71.7333 195.253 77.0315 191.944 80.4655C192.483 82.5887 191.43 85.572 189.093 87.9599C187.551 89.5354 185.754 90.5382 184.113 90.8828C184.008 90.9045 184.131 89.9329 184.253 88.9624C184.374 87.9991 184.495 87.037 184.394 87.0483C183.712 89.3517 180.409 96.0007 177.005 98.0098C173.542 100.052 169.976 100.816 167.686 100.213C167.621 100.196 168.136 99.6313 168.651 99.0663C169.166 98.5024 169.681 97.9379 169.621 97.9162C168.537 98.3149 167.513 99.4599 166.49 100.603C165.234 102.008 163.98 103.409 162.623 103.415C161.542 103.42 160.113 102.211 158.592 100.925C157.144 99.7 155.613 98.4048 154.222 98.0235C154.131 98.0655 154.727 98.4869 155.314 98.9021C155.891 99.3104 156.459 99.7128 156.359 99.7428C154.078 100.425 150.427 99.6732 146.885 97.5842C143.688 95.6984 139.931 89.5993 139.096 87.3929C138.963 87.378 139.19 88.2568 139.416 89.1311C139.641 90.0049 139.865 90.8742 139.729 90.8417C138.138 90.4629 136.419 89.4772 134.935 87.961C132.26 85.2275 131.263 81.7102 132.417 79.6007C129.77 76.1815 129.408 71.3945 131.584 67.544L132.377 66.1408C131.865 64.3405 132.365 61.4335 133.843 58.5449C134.552 57.1612 138.724 54.7964 141.644 53.1415C145.044 51.2145 146.747 50.2497 139.307 52.9158C139.032 51.1053 139.571 48.4961 140.899 45.9018C141.727 44.2834 145.528 42.0513 147.957 40.6249C150.386 39.1986 151.443 38.578 146.783 40.1826C146.708 38.4268 147.267 36.1188 148.441 33.8257C149.183 32.3769 152.304 30.2653 154.385 28.8575C156.522 27.4118 157.561 26.7084 153.8 28.2274L154.219 27.487C154.308 27.3281 154.401 27.1626 154.498 26.9916C156.369 23.6652 159.417 18.2459 162.474 18.222C165.64 18.1966 168.816 23.8267 170.707 27.1786C170.766 27.2837 170.824 27.3866 170.881 27.487L171.6 28.7591C167.633 26.6985 168.839 27.643 170.997 29.3335C172.857 30.7907 175.426 32.8023 175.998 33.9215C176.998 35.8735 177.547 37.8313 177.643 39.4547L178.179 40.4028C173.291 38.2699 174.424 39.0191 176.894 40.6523C179.245 42.207 182.807 44.5627 183.541 45.9965C184.811 48.4756 185.357 50.9672 185.163 52.7629L185.343 53.0812C177.663 50.6533 179.642 51.734 183.192 53.6714C186.055 55.2344 189.94 57.3549 190.598 58.6407C191.836 61.0593 192.385 63.4894 192.234 65.2749ZM158.875 85.9123C159.803 85.7176 160.889 85.4899 162.057 85.4899C163.181 85.4899 164.331 85.6891 165.349 85.8654C167.549 86.2463 169.133 86.5205 168.498 84.4483C168.166 83.3622 165.902 78.7896 162.108 81.1044C158.598 78.5295 155.833 83.3348 155.8 84.4722C155.737 86.5699 156.978 86.3099 158.875 85.9123ZM183.799 79.5699C183.983 79.4148 184.165 79.2585 184.34 79.0999C185.987 77.6111 185.938 74.9631 184.206 73.5792C183.355 72.8993 182.554 71.9911 181.898 70.8993C181.82 70.7689 181.715 70.6026 181.6 70.4198C181.078 69.5935 180.342 68.4291 180.897 68.7066C186.53 71.5188 179.443 66.5595 178.18 66.2994C176.835 66.0221 175.401 65.6034 174.101 64.4774C174.038 64.422 173.878 64.3403 173.715 64.257C173.368 64.0796 173.007 63.895 173.53 63.9423C179.484 64.4785 172.259 62.6223 171.496 62.4569C168.564 61.8214 165.355 61.5511 161.99 61.5511C158.606 61.5511 155.38 61.9047 152.434 62.5459C151.628 62.7216 143.946 64.5652 150.34 64.053C150.569 64.0343 150.235 64.278 149.933 64.4993C149.811 64.5886 149.694 64.6742 149.62 64.7375C148.901 65.36 148.128 65.6561 147.358 65.9509C147.189 66.0154 147.021 66.0798 146.854 66.1476C145.74 66.5983 138.475 72.3653 144.655 68.7579C145.515 68.2559 144.023 70.767 143.431 71.7516C142.759 72.8708 141.937 73.7949 141.062 74.4782C139.187 75.9408 139.3 78.8797 141.223 80.2761C141.28 80.3183 141.337 80.3594 141.395 80.4005C144.674 82.745 149.133 82.7279 152.286 80.21C153.651 79.1205 156.77 77.9084 158.309 77.3102C159.597 76.8096 159.778 76.739 156.901 77.5301C156.592 77.2186 156.418 76.8752 156.418 76.5135C156.418 75.1217 158.946 72.1121 162.065 72.1121C165.183 72.1121 167.711 75.1217 167.711 76.5135C167.711 76.8193 167.584 77.1114 167.361 77.3817C164.64 76.5444 164.67 76.5562 165.803 77.0076C167.298 77.6035 170.717 78.9657 172.269 80.1518C175.446 82.5795 179.814 82.4848 183.028 80.1735C183.282 79.9578 183.539 79.7559 183.799 79.5699ZM157.98 69.1275C157.583 67.4299 155.177 66.5629 152.608 67.1915C150.039 67.8201 148.279 69.706 148.677 71.4047C148.704 71.5213 149.112 71.4131 149.524 71.3041C150.33 71.0908 151.148 70.8741 149.153 72.3288C148.517 72.792 150.577 72.9643 151.165 72.4395C151.863 71.8166 152.816 71.3123 153.924 71.0408C154.779 70.832 155.615 70.7887 156.366 70.8879C157.344 71.0157 158.206 70.1315 157.986 69.1492L157.984 69.1439C157.983 69.1381 157.981 69.1328 157.98 69.1275ZM171.089 67.1915C168.52 66.5629 166.115 67.4299 165.716 69.1275C165.715 69.1344 165.713 69.1412 165.711 69.1481C165.491 70.1304 166.353 71.0145 167.332 70.8868C168.082 70.7887 168.918 70.8309 169.774 71.0396C170.881 71.31 171.836 71.8154 172.533 72.4384C173.12 72.9632 175.13 72.8559 174.545 72.3277C173.262 71.1695 173.845 71.2878 174.412 71.4029C174.705 71.4622 174.993 71.5207 175.02 71.4036C175.419 69.706 173.658 67.8201 171.089 67.1915Z" fill="url(#paint0_linear_5_77)"/>
<path fill-rule="evenodd" clip-rule="evenodd" d="M252.013 118.823C249.013 113.958 242.555 111.493 235.186 111.493C222.142 111.493 212.686 121.489 212.684 136.149C212.684 141.446 213.918 146.133 216.11 149.961C214.739 148.978 213.642 146.93 211.671 143.229C208.752 137.803 206.042 135.821 199.893 135.821H201.56C205.364 135.821 213.077 131.751 213.077 125.751C213.077 118.29 205.468 115.733 199.059 115.733H183.113C182.332 115.733 182.436 116.881 183.116 117.299C185.266 118.563 185.236 125.328 185.207 131.792V131.794C185.203 132.534 185.2 133.271 185.2 133.995C185.2 134.299 185.2 134.604 185.201 134.912C185.205 141.744 185.21 149.443 183.116 150.691C182.438 151.108 182.334 152.256 183.116 152.256H196.351C197.133 152.256 197.133 151.161 196.351 150.691C194.318 149.387 194.11 142.708 194.058 136.291H195.725C200.092 136.291 201.518 139.359 203.254 143.094L203.255 143.097C203.465 143.55 203.681 144.013 203.906 144.482C204.635 146.047 206.303 149.96 205.157 150.691C204.428 151.161 204.428 152.256 205.209 152.256H217.195C217.334 152.256 217.457 152.231 217.564 152.187C221.584 157.612 227.812 160.806 235.185 160.806C239.229 160.806 242.881 159.673 245.946 158.073C246.99 157.673 247.904 157.473 248.751 157.473C250.138 157.473 251.322 157.92 252.569 158.391C253.962 158.916 255.434 159.472 257.36 159.472C258.665 159.472 258.795 158.539 258.404 157.872C256.317 154.54 256.253 140.013 258.013 138.88C258.927 138.348 258.991 136.882 258.013 136.882H241.448C240.47 136.882 240.6 138.348 241.448 138.88C242.948 139.814 249.209 155.074 240.144 155.074C227.621 155.074 220.643 133.084 220.643 125.62C220.643 118.623 224.164 114.425 230.034 114.425C235.653 114.425 240.119 121.48 242.993 126.018L243.078 126.153C244.121 127.752 245.622 128.485 247.252 128.485C251.165 128.485 255.339 124.154 252.013 118.823ZM75.0866 155.672L98.4677 114.8C92.9485 114.927 89.103 115.941 85.9397 123.292C85.0096 125.509 82.9004 126.586 80.8537 126.586C78.0634 126.586 75.4584 124.686 75.8927 121.074C76.8229 113.09 86.6834 112.899 92.762 112.899H108.328C109.382 112.899 109.754 113.533 109.197 114.484L108.481 115.732H115.777C116.559 115.732 116.559 116.88 115.777 117.297C114.281 118.11 116.535 124.081 118.803 130.088C119.301 131.407 119.799 132.727 120.259 133.994L120.391 134.347C121.004 135.983 121.809 138.129 122.343 139.734C124.167 134.673 126.148 129.091 127.346 125.699C125.626 121.524 123.854 118.081 122.239 117.299C121.404 116.881 121.457 115.733 122.239 115.733H134.902C135.683 115.733 135.683 116.881 134.902 117.299C133.406 118.112 135.662 124.086 137.93 130.095L137.93 130.095L137.931 130.095L137.931 130.096C138.427 131.411 138.925 132.729 139.384 133.994L139.516 134.347L139.516 134.347L139.517 134.349C140.13 135.985 140.934 138.13 141.468 139.734C142.406 137.073 143.24 134.777 143.553 133.994C146.107 126.95 147.982 119.28 144.387 117.297C143.605 116.88 143.605 115.732 144.387 115.732H154.444C154.453 115.732 154.461 115.732 154.47 115.733C154.475 115.733 154.481 115.733 154.486 115.733H175.095C179.785 115.733 181.766 118.916 181.766 122.568C181.766 124.29 181.349 127.159 178.899 127.159C176.711 127.159 175.981 125.333 175.355 123.611C175.251 123.333 175.151 123.058 175.052 122.786L175.052 122.786C173.961 119.797 173.049 117.297 169.466 117.297C165.246 117.35 165.193 126.01 165.193 132.898C167.225 132.376 168.581 131.176 169.31 129.767C169.988 128.411 170.77 127.784 171.342 127.784C171.968 127.784 172.437 128.463 172.437 129.767V138.271C172.437 139.575 171.968 140.201 171.342 140.201C170.77 140.201 169.988 139.575 169.31 138.271C168.581 136.862 167.225 135.662 165.193 135.141C165.193 142.028 165.246 150.688 169.466 150.688C173.427 150.688 174.938 147.714 176.188 144.375C176.814 142.653 177.543 140.827 179.732 140.827C182.182 140.827 182.599 143.696 182.599 145.419C182.599 149.071 179.837 152.254 175.146 152.254H154.146C153.364 152.256 153.468 151.108 154.146 150.691C156.344 149.391 156.339 141.718 156.335 134.882C156.335 134.585 156.334 134.289 156.334 133.995C156.334 133.476 156.336 132.95 156.337 132.421V132.421C156.351 125.911 156.366 118.901 154.281 117.387C151.71 118.947 148.659 127.096 146.158 133.993C144.855 137.541 141.312 147.298 140.009 151.106C139.8 151.785 139.175 152.254 138.498 152.254H137.923V152.256C137.142 152.256 136.933 152.047 136.569 150.847C135.84 148.552 132.035 138.012 130.524 133.994C130.328 133.461 130.133 132.915 129.936 132.364C129.554 131.297 129.164 130.208 128.752 129.142C126.094 136.447 122.186 147.351 120.883 151.108C120.674 151.787 120.049 152.256 119.372 152.256H118.799C118.018 152.256 117.809 152.047 117.445 150.847C116.716 148.552 112.912 138.012 111.4 133.994C109.67 129.221 107.676 123.85 105.76 120.476L85.7544 155.356C92.0184 155.356 96.1732 154.722 99.5843 146.864C100.514 144.646 102.624 143.569 104.67 143.569C107.461 143.569 110.066 145.47 109.631 149.082C108.701 157.066 98.8395 157.256 92.762 157.256H75.9553C74.9012 157.255 74.5294 156.622 75.0866 155.672ZM194.057 133.994V134.724C201.3 134.568 204.219 131.959 204.219 126.063C204.219 120.846 202.343 117.297 199.06 117.297C193.818 117.298 193.931 124.811 194.031 131.417C194.044 132.299 194.057 133.165 194.057 133.994Z" fill="#FFF8F1"/>
<defs>
<linearGradient id="paint0_linear_5_77" x1="174.355" y1="11.3783" x2="158.791" y2="105.768" gradientUnits="userSpaceOnUse">
<stop stop-color="#FF5045"/>
<stop offset="1" stop-color="#E72222"/>
</linearGradient>
</defs>
</svg>
