<svg width="106" height="116" viewBox="0 0 106 116" fill="none" xmlns="http://www.w3.org/2000/svg">
<path d="M30.8635 105.998C29.0861 106.031 27.3331 105.579 25.7901 104.692C15.4557 98.5997 19.3038 73.3298 34.5532 47.1632C49.8227 20.9687 69.878 5.2189 80.214 11.3048C90.5499 17.3907 86.688 42.6931 71.4247 68.8814C58.3829 91.2583 41.8436 105.998 30.8635 105.998ZM75.1298 13.0984C66.2452 13.0984 50.5514 25.8393 37.2114 48.7233C21.8758 75.0415 19.7312 97.5297 27.3505 102.02C34.9699 106.51 53.4294 93.641 68.765 67.3228C84.1174 40.9752 86.2728 18.4623 78.655 13.9782C77.5797 13.3722 76.3621 13.0683 75.1298 13.0984Z" fill="#FFE2B7"/>
<path d="M79.7886 115.998C74.2083 115.998 67.3516 112.871 59.8279 106.794C49.6883 98.6028 39.3418 85.9412 30.6908 71.1425C22.0399 56.3438 16.0552 41.0669 13.879 28.1774C11.6003 14.6957 13.7877 5.24899 20.0276 1.5764C32.5615 -5.77623 56.8617 13.2517 75.369 44.8964C93.841 76.5113 98.5047 107.041 85.9894 114.406C84.1031 115.487 81.9608 116.037 79.7886 115.998ZM26.1912 3.74334C24.6977 3.70718 23.2221 4.0743 21.9188 4.80626C17.1732 7.59525 15.5838 15.8894 17.5533 27.5591C19.655 40.004 25.4626 54.8102 33.9068 69.2539C42.3341 83.6734 52.3694 95.967 62.1663 103.884C71.3557 111.307 79.3489 113.971 84.0982 111.169C93.3305 105.75 90.7313 78.5811 72.1457 46.7832C55.9804 19.1361 36.9587 3.74334 26.1912 3.74334Z" fill="#FFE2B7"/>
<path d="M53.1514 79H52.9349C23.2367 78.9547 -0.0181608 69.6924 1.06421e-05 57.9146C0.00909635 52.0401 5.7225 46.6523 16.0893 42.7445C25.9321 39.0333 38.9641 37 52.7895 37H53C66.9314 37.0212 80.0482 39.1043 89.9486 42.8655C100.309 46.8035 106.009 52.2079 106 58.0839C105.991 63.9599 100.274 69.3341 89.9031 73.2464C80.0466 76.9592 67.0041 79 53.1514 79ZM52.9394 75.9766H53.1514C66.6437 75.9766 79.3046 74.0113 88.828 70.418C97.8122 67.0363 102.971 62.5314 102.971 58.0718C102.971 53.6122 97.8395 49.0922 88.8704 45.6833C79.3107 42.0491 66.571 40.037 53 40.0159C39.4608 40.0522 26.7241 41.9675 17.1599 45.5745C8.18624 48.9562 3.02858 53.4611 3.02858 57.9191C3.01495 66.6024 23.0701 75.9312 52.9455 75.9766H52.9394Z" fill="#FFE2B7"/>
<path d="M53 65.6218C51.4926 65.6218 50.0191 65.1748 48.7657 64.3373C47.5123 63.4998 46.5354 62.3095 45.9586 60.9168C45.3817 59.5242 45.2308 57.9917 45.5249 56.5133C45.819 55.0348 46.5448 53.6768 47.6107 52.6109C48.6766 51.545 50.0347 50.8191 51.5131 50.525C52.9916 50.2309 54.524 50.3818 55.9167 50.9587C57.3094 51.5356 58.4997 52.5125 59.3372 53.7658C60.1747 55.0192 60.6217 56.4928 60.6217 58.0002C60.6197 60.0209 59.816 61.9583 58.3871 63.3872C56.9582 64.8161 55.0208 65.6198 53 65.6218ZM53 52.9191C51.9951 52.9191 51.0127 53.2171 50.1771 53.7754C49.3416 54.3337 48.6903 55.1273 48.3057 56.0557C47.9212 56.9842 47.8205 58.0058 48.0166 58.9914C48.2127 59.9771 48.6966 60.8824 49.4072 61.593C50.1178 62.3036 51.0231 62.7876 52.0088 62.9836C52.9944 63.1797 54.016 63.0791 54.9445 62.6945C55.8729 62.3099 56.6665 61.6586 57.2248 60.8231C57.7831 59.9875 58.0811 59.0051 58.0811 58.0002C58.0811 56.6526 57.5458 55.3602 56.5929 54.4073C55.64 53.4544 54.3476 52.9191 53 52.9191Z" fill="#FFE2B7"/>
</svg>
