<svg width="110" height="126" viewBox="0 0 110 126" fill="none" xmlns="http://www.w3.org/2000/svg">
<path d="M97.9745 58C96.4634 49.0454 92.2914 40.7894 86.0301 34.3634C79.7688 27.9374 71.7247 23.6558 63 22.1052L63.5188 19C72.8686 20.6612 81.4891 25.2492 88.1991 32.1352C94.9091 39.0212 99.3803 47.8684 101 57.4644L97.9745 58Z" fill="#FFE2B7"/>
<path d="M46.4796 112C37.1302 110.338 28.51 105.75 21.8003 98.8644C15.0906 91.9784 10.6196 83.1314 9 73.5357L12.0254 73C13.5366 81.9546 17.7086 90.2106 23.9699 96.6366C30.2311 103.063 38.2753 107.344 47 108.895L46.4796 112Z" fill="#FFE2B7"/>
<path d="M12.0254 58L9 57.4644C10.6196 47.8686 15.0906 39.0216 21.8003 32.1356C28.51 25.2496 37.1302 20.6615 46.4796 19L47 22.1052C38.2753 23.6558 30.2311 27.9374 23.9699 34.3634C17.7086 40.7894 13.5366 49.0454 12.0254 58Z" fill="#FFE2B7"/>
<path d="M63.5204 112L63 108.895C71.7247 107.344 79.7688 103.063 86.0301 96.6366C92.2914 90.2106 96.4634 81.9546 97.9745 73L101 73.5341C99.3807 83.1301 94.9098 91.9774 88.2001 98.8638C81.4904 105.75 72.87 110.338 63.5204 112Z" fill="#FFE2B7"/>
<path d="M55 27C52.2311 27 49.5243 26.2082 47.222 24.7248C44.9197 23.2414 43.1253 21.133 42.0657 18.6662C41.0061 16.1994 40.7288 13.485 41.269 10.8663C41.8092 8.24754 43.1426 5.84207 45.1005 3.95406C47.0584 2.06606 49.553 0.780305 52.2687 0.259405C54.9845 -0.261496 57.7994 0.00584936 60.3576 1.02763C62.9157 2.04941 65.1022 3.77974 66.6406 5.99981C68.1789 8.21987 69 10.83 69 13.5C68.9963 17.0793 67.5201 20.511 64.8954 23.042C62.2707 25.573 58.7119 26.9964 55 27ZM55 4.50001C53.154 4.50001 51.3495 5.02785 49.8147 6.01678C48.2798 7.00571 47.0835 8.41132 46.3771 10.0559C45.6707 11.7004 45.4859 13.51 45.846 15.2558C46.2061 17.0016 47.0951 18.6053 48.4003 19.864C49.7056 21.1226 51.3687 21.9798 53.1792 22.3271C54.9897 22.6743 56.8663 22.4961 58.5717 21.8149C60.2772 21.1337 61.7348 19.9802 62.7604 18.5001C63.7859 17.0201 64.3333 15.28 64.3333 13.5C64.3333 11.1131 63.35 8.82387 61.5997 7.13604C59.8493 5.44822 57.4754 4.50001 55 4.50001Z" fill="#FFE2B7"/>
<path d="M55 126C52.6266 126 50.3066 125.267 48.3332 123.893C46.3598 122.52 44.8217 120.568 43.9135 118.284C43.0052 115.999 42.7676 113.486 43.2306 111.061C43.6936 108.637 44.8365 106.409 46.5147 104.661C48.193 102.913 50.3311 101.723 52.6589 101.24C54.9867 100.758 57.3995 101.005 59.5922 101.952C61.7849 102.898 63.6591 104.5 64.9776 106.555C66.2962 108.611 67 111.028 67 113.5C66.9968 116.814 65.7315 119.992 63.4818 122.335C61.232 124.679 58.1816 125.997 55 126ZM55 105.167C53.4178 105.167 51.871 105.655 50.5554 106.571C49.2398 107.487 48.2145 108.788 47.609 110.311C47.0035 111.834 46.845 113.509 47.1537 115.126C47.4624 116.742 48.2243 118.227 49.3432 119.393C50.462 120.558 51.8874 121.352 53.4393 121.673C54.9911 121.995 56.5997 121.83 58.0615 121.199C59.5233 120.568 60.7727 119.5 61.6518 118.13C62.5308 116.759 63 115.148 63 113.5C63 111.29 62.1571 109.17 60.6569 107.607C59.1566 106.045 57.1217 105.167 55 105.167Z" fill="#FFE2B7"/>
<path d="M100.5 75C98.6211 75 96.7844 74.4428 95.2221 73.399C93.6598 72.3551 92.4422 70.8714 91.7232 69.1355C91.0041 67.3996 90.816 65.4895 91.1825 63.6466C91.5491 61.8038 92.4539 60.1111 93.7825 58.7825C95.1111 57.4539 96.8038 56.5491 98.6467 56.1825C100.489 55.816 102.4 56.0041 104.135 56.7231C105.871 57.4422 107.355 58.6598 108.399 60.2221C109.443 61.7844 110 63.6211 110 65.5C109.997 68.0188 108.996 70.4337 107.215 72.2147C105.434 73.9958 103.019 74.9975 100.5 75ZM100.5 59.1667C99.2474 59.1667 98.0229 59.5381 96.9814 60.234C95.9399 60.9299 95.1281 61.9191 94.6488 63.0763C94.1694 64.2336 94.044 65.507 94.2884 66.7356C94.5327 67.9641 95.1359 69.0926 96.0217 69.9783C96.9074 70.8641 98.0359 71.4673 99.2644 71.7116C100.493 71.956 101.766 71.8306 102.924 71.3512C104.081 70.8719 105.07 70.0601 105.766 69.0186C106.462 67.9771 106.833 66.7526 106.833 65.5C106.833 63.8203 106.166 62.2094 104.978 61.0217C103.791 59.8339 102.18 59.1667 100.5 59.1667Z" fill="#FFE2B7"/>
<path d="M9.5 75C7.62108 75 5.78435 74.4428 4.22209 73.399C2.65982 72.3551 1.44218 70.8714 0.723149 69.1355C0.00411624 67.3996 -0.184015 65.4895 0.182544 63.6466C0.549104 61.8038 1.45389 60.1111 2.78249 58.7825C4.11109 57.4539 5.80383 56.5491 7.64665 56.1825C9.48946 55.816 11.3996 56.0041 13.1355 56.7231C14.8714 57.4422 16.3551 58.6598 17.399 60.2221C18.4428 61.7844 19 63.6211 19 65.5C18.9975 68.0188 17.9958 70.4337 16.2147 72.2147C14.4337 73.9958 12.0188 74.9975 9.5 75ZM9.5 59.1667C8.24739 59.1667 7.0229 59.5381 5.98139 60.234C4.93988 60.9299 4.12812 61.9191 3.64877 63.0763C3.16941 64.2336 3.04399 65.507 3.28836 66.7356C3.53274 67.9641 4.13593 69.0926 5.02166 69.9783C5.90739 70.8641 7.03588 71.4673 8.26443 71.7116C9.49298 71.956 10.7664 71.8306 11.9237 71.3512C13.0809 70.8719 14.0701 70.0601 14.766 69.0186C15.4619 67.9771 15.8333 66.7526 15.8333 65.5C15.8333 63.8203 15.1661 62.2094 13.9783 61.0217C12.7906 59.8339 11.1797 59.1667 9.5 59.1667Z" fill="#FFE2B7"/>
<path d="M55 92C49.6599 92 44.4397 90.4165 39.9996 87.4497C35.5595 84.4829 32.0988 80.2661 30.0553 75.3325C28.0117 70.3989 27.477 64.9701 28.5188 59.7326C29.5606 54.4951 32.1321 49.6841 35.9081 45.9081C39.6841 42.1321 44.4951 39.5606 49.7326 38.5188C54.97 37.477 60.3988 38.0117 65.3325 40.0553C70.2661 42.0988 74.4829 45.5595 77.4497 49.9996C80.4165 54.4397 82 59.6599 82 65C81.9917 72.1583 79.1443 79.021 74.0827 84.0827C69.021 89.1443 62.1583 91.9917 55 92ZM55 41C50.2533 41 45.6131 42.4076 41.6663 45.0447C37.7195 47.6819 34.6434 51.4302 32.8269 55.8156C31.0104 60.201 30.5351 65.0266 31.4612 69.6822C32.3872 74.3377 34.673 78.6141 38.0294 81.9706C41.3859 85.327 45.6623 87.6128 50.3178 88.5388C54.9734 89.4649 59.799 88.9896 64.1844 87.1731C68.5698 85.3566 72.3181 82.2805 74.9553 78.3337C77.5924 74.3869 79 69.7468 79 65C78.9925 58.6371 76.4615 52.537 71.9622 48.0378C67.463 43.5385 61.3629 41.0076 55 41Z" fill="#FFE2B7"/>
<path d="M55 80.2431C51.9852 80.2431 49.038 79.3491 46.5313 77.6742C44.0246 75.9992 42.0708 73.6186 40.9171 70.8332C39.7633 68.0479 39.4615 64.983 40.0496 62.0261C40.6378 59.0692 42.0896 56.3531 44.2214 54.2213C46.3532 52.0895 49.0693 50.6377 52.0262 50.0495C54.9831 49.4614 58.048 49.7632 60.8333 50.917C63.6187 52.0707 65.9993 54.0244 67.6743 56.5312C69.3492 59.0379 70.2432 61.9851 70.2432 64.9999C70.2389 69.0413 68.6315 72.9159 65.7738 75.7737C62.916 78.6314 59.0414 80.2387 55 80.2431ZM55 52.2972C52.4876 52.2972 50.0317 53.0422 47.9427 54.438C45.8538 55.8338 44.2257 57.8176 43.2642 60.1388C42.3028 62.4599 42.0512 65.014 42.5414 67.4781C43.0315 69.9421 44.2413 72.2055 46.0178 73.982C47.7943 75.7586 50.0577 76.9684 52.5218 77.4585C54.9859 77.9486 57.54 77.6971 59.8611 76.7356C62.1822 75.7742 64.1661 74.1461 65.5619 72.0571C66.9577 69.9682 67.7027 67.5122 67.7027 64.9999C67.699 61.632 66.3595 58.4032 63.9781 56.0218C61.5966 53.6404 58.3678 52.3009 55 52.2972Z" fill="#FFE2B7"/>
<path d="M55 70.0812C53.9951 70.0812 53.0127 69.7832 52.1771 69.2249C51.3415 68.6665 50.6903 67.873 50.3057 66.9445C49.9211 66.0161 49.8205 64.9945 50.0166 64.0088C50.2126 63.0232 50.6965 62.1178 51.4071 61.4072C52.1177 60.6966 53.0231 60.2127 54.0087 60.0167C54.9944 59.8206 56.016 59.9212 56.9445 60.3058C57.8729 60.6904 58.6665 61.3416 59.2248 62.1772C59.7831 63.0128 60.0811 63.9952 60.0811 65.0001C60.0811 66.3477 59.5458 67.6401 58.5929 68.593C57.64 69.5459 56.3476 70.0812 55 70.0812ZM55 62.4596C54.4975 62.4596 54.0063 62.6086 53.5886 62.8877C53.1708 63.1669 52.8451 63.5637 52.6529 64.0279C52.4606 64.4921 52.4103 65.0029 52.5083 65.4957C52.6063 65.9885 52.8483 66.4412 53.2036 66.7965C53.5589 67.1518 54.0116 67.3938 54.5044 67.4918C54.9972 67.5899 55.508 67.5395 55.9722 67.3473C56.4364 67.155 56.8332 66.8293 57.1124 66.4115C57.3915 65.9938 57.5405 65.5026 57.5405 65.0001C57.5405 64.3263 57.2729 63.6801 56.7964 63.2037C56.32 62.7272 55.6738 62.4596 55 62.4596Z" fill="#FFE2B7"/>
</svg>
