<svg width="118" height="78" viewBox="0 0 118 78" fill="none" xmlns="http://www.w3.org/2000/svg">
<path d="M46.4752 20.5181C45.7755 19.8273 44.7259 19.8273 44.026 20.5181L26.5319 37.7908C26.0071 38.309 25.8322 38.9999 26.1819 39.6909C26.3568 40.0364 26.5319 40.2091 26.7068 40.3818L44.026 57.4818C44.3759 57.8273 44.7257 58 45.2505 58C45.7753 58 46.1253 57.8273 46.475 57.4818C47.1747 56.791 47.1747 55.7546 46.475 55.0636L30.2057 39.0001L46.4752 22.9364C47.1749 22.2455 47.1749 21.2092 46.4752 20.5181Z" fill="#FFE2B7"/>
<path d="M90.3271 37.6181L73.8325 20.5181C73.1661 19.8273 72.1664 19.8273 71.4999 20.5181C70.8333 21.209 70.8335 22.2453 71.4999 22.9364L86.9948 39L71.4999 55.0636C70.8335 55.7544 70.8335 56.7908 71.4999 57.4818C71.8332 57.8273 72.1662 58 72.6661 58C73.1659 58 73.6657 57.8273 73.8323 57.4818L90.4934 40.2092C90.9933 39.691 91.1598 39.0002 90.8267 38.3091C90.6604 37.9636 90.4936 37.791 90.3271 37.6181Z" fill="#FFE2B7"/>
<path d="M63.8224 20.0332C63.0035 19.8599 62.1848 20.38 61.8572 21.2467L52.0314 55.9196C51.8677 56.7865 52.3589 57.6532 53.1776 58C53.3413 58 53.5052 58 53.6689 58C54.3239 58 54.9791 57.4799 55.1428 56.7865L64.9686 22.1136C65.1323 21.2467 64.6411 20.3798 63.8224 20.0332Z" fill="#FFE2B7"/>
<path d="M101.1 0H16.8999C7.53995 0 0 7.53995 0 16.8999V61.0999C0 70.4601 7.53995 78 16.8999 78H101.1C110.46 78 118 70.46 118 61.1V16.8999C118 7.53995 110.46 0 101.1 0ZM115.4 61.1C115.4 69.03 109.03 75.4001 101.1 75.4001H16.8999C8.97 75.4001 2.5999 69.0302 2.5999 61.1V16.8999C2.5999 8.97 8.96985 2.5999 16.8999 2.5999H101.1C109.03 2.5999 115.4 8.96985 115.4 16.8999V61.1Z" fill="#FFE2B7"/>
</svg>
